<svg width="70" height="70" viewBox="0 0 70 70" fill="none" xmlns="http://www.w3.org/2000/svg">
<path d="M17.5 6.5625H15.3125V8.75H17.5V6.5625Z" fill="black"/>
<path d="M21.875 6.5625H19.6875V8.75H21.875V6.5625Z" fill="black"/>
<path d="M26.25 6.5625H24.0625V8.75H26.25V6.5625Z" fill="black"/>
<path d="M3.28125 67.8125H37.1875C37.4038 67.8125 37.6152 67.7483 37.795 67.6281C37.9749 67.5079 38.115 67.3371 38.1978 67.1373C38.2805 66.9375 38.3022 66.7176 38.26 66.5054C38.2178 66.2933 38.1137 66.0984 37.9608 65.9455L4.05453 32.0392C3.90157 31.8863 3.7067 31.7822 3.49457 31.74C3.28243 31.6978 3.06255 31.7195 2.86272 31.8022C2.66289 31.885 2.49209 32.0252 2.3719 32.205C2.25172 32.3848 2.18755 32.5962 2.1875 32.8125V66.7188C2.1875 67.0088 2.30273 67.287 2.50785 67.4922C2.71297 67.6973 2.99117 67.8125 3.28125 67.8125ZM4.375 35.4528L34.5472 65.625H4.375V35.4528Z" fill="black"/>
<path d="M21.5545 59.383L10.617 48.4455C10.4641 48.2926 10.2692 48.1884 10.0571 48.1462C9.84493 48.1041 9.62505 48.1257 9.42522 48.2085C9.22539 48.2913 9.05459 48.4314 8.9344 48.6112C8.81422 48.7911 8.75005 49.0025 8.75 49.2188V60.1563C8.75 60.4463 8.86523 60.7245 9.07035 60.9297C9.27547 61.1348 9.55367 61.25 9.84375 61.25H20.7813C20.9975 61.25 21.209 61.1858 21.3888 61.0656C21.5686 60.9454 21.7088 60.7746 21.7915 60.5748C21.8743 60.375 21.8959 60.1551 21.8538 59.9429C21.8116 59.7308 21.7074 59.5359 21.5545 59.383ZM10.9375 59.0625V51.8591L18.1409 59.0625H10.9375Z" fill="black"/>
<path d="M66.5853 11.5238C67.3706 10.7385 67.8117 9.67348 67.8117 8.56297C67.8117 7.45246 67.3706 6.38744 66.5853 5.60219C65.8001 4.81694 64.735 4.37579 63.6245 4.37579C62.514 4.37579 61.449 4.81694 60.6637 5.60219L59.0231 7.24281C58.9214 5.87116 58.3057 4.58845 57.2991 3.65118C56.2925 2.71392 54.9692 2.19118 53.5938 2.1875H16.4062C14.9564 2.18924 13.5664 2.76596 12.5412 3.79118C11.516 4.81639 10.9392 6.20638 10.9375 7.65625V36.0938H13.125V7.65625C13.125 6.78601 13.4707 5.95141 14.0861 5.33606C14.7014 4.7207 15.536 4.375 16.4062 4.375H53.5938C54.464 4.375 55.2986 4.7207 55.9139 5.33606C56.5293 5.95141 56.875 6.78601 56.875 7.65625V9.39094L46.5784 19.6875H38.5394C37.7601 17.6924 36.4622 15.9416 34.7797 14.6161C33.0972 13.2906 31.0912 12.4385 28.9691 12.148C26.847 11.8574 24.6858 12.1389 22.7089 12.9633C20.732 13.7877 19.0112 15.1252 17.7243 16.8374C16.4374 18.5497 15.6312 20.5745 15.389 22.7027C15.1468 24.8309 15.4774 26.9851 16.3466 28.9427C17.2158 30.9003 18.5921 32.5903 20.3331 33.8378C22.0742 35.0854 24.1169 35.8453 26.25 36.0391V40.4688C26.25 40.7588 26.3652 41.037 26.5704 41.2421C26.7755 41.4473 27.0537 41.5625 27.3438 41.5625H51.4062C51.6963 41.5625 51.9745 41.4473 52.1796 41.2421C52.3848 41.037 52.5 40.7588 52.5 40.4688V25.6091L56.875 21.2341V43.75H31.7188C31.4287 43.75 31.1505 43.8652 30.9454 44.0704C30.7402 44.2755 30.625 44.5537 30.625 44.8438V53.5938C30.625 53.8838 30.7402 54.162 30.9454 54.3671C31.1505 54.5723 31.4287 54.6875 31.7188 54.6875H56.875V55.7812C56.875 56.6515 56.5293 57.4861 55.9139 58.1014C55.2986 58.7168 54.464 59.0625 53.5938 59.0625H36.0938V61.25H53.5938C55.0436 61.2483 56.4336 60.6715 57.4588 59.6463C58.484 58.6211 59.0608 57.2311 59.0625 55.7812V54.6875H66.7188C67.0088 54.6875 67.287 54.5723 67.4921 54.3671C67.6973 54.162 67.8125 53.8838 67.8125 53.5938V44.8438C67.8125 44.5537 67.6973 44.2755 67.4921 44.0704C67.287 43.8652 67.0088 43.75 66.7188 43.75H59.0625V19.0466L66.5853 11.5238ZM62.2103 7.14875C62.3945 6.95643 62.6153 6.80283 62.8597 6.69697C63.1041 6.5911 63.3671 6.5351 63.6334 6.53224C63.8997 6.52938 64.1639 6.57972 64.4105 6.68031C64.6571 6.78091 64.8811 6.92973 65.0695 7.11804C65.2578 7.30636 65.4066 7.53039 65.5072 7.77698C65.6078 8.02357 65.6581 8.28777 65.6553 8.55407C65.6524 8.82038 65.5964 9.08343 65.4905 9.32781C65.3847 9.57218 65.2311 9.79296 65.0387 9.97719L64.5312 10.4847L61.7028 7.65625L62.2103 7.14875ZM37.1875 24.0625C37.1842 26.4825 36.2906 28.8168 34.6769 30.6203C33.0632 32.4238 30.8423 33.5704 28.4375 33.8417V21.875H36.9338C37.1002 22.5923 37.1853 23.3261 37.1875 24.0625ZM26.25 20.7812V33.8417C24.5515 33.6546 22.931 33.0287 21.5479 32.0254C20.1647 31.0221 19.0665 29.676 18.3613 28.1196C17.6561 26.5632 17.3682 24.85 17.526 23.1486C17.6837 21.4471 18.2816 19.816 19.2608 18.4158C20.2401 17.0155 21.567 15.8942 23.111 15.1623C24.655 14.4303 26.363 14.1129 28.0669 14.2412C29.7708 14.3695 31.4119 14.9391 32.8289 15.8941C34.2459 16.849 35.3899 18.1563 36.1484 19.6875H27.3438C27.0537 19.6875 26.7755 19.8027 26.5704 20.0079C26.3652 20.213 26.25 20.4912 26.25 20.7812ZM50.3125 39.375H28.4375V36.0391C30.1052 35.8931 31.7239 35.3993 33.1891 34.5895C34.6543 33.7797 35.9335 32.6718 36.9443 31.3373C37.9551 30.0028 38.6751 28.4713 39.0578 26.8416C39.4404 25.2118 39.4773 23.5199 39.1661 21.875H44.3909L41.883 24.383C41.73 24.5354 41.626 24.73 41.5844 24.9419L40.4906 30.4106C40.4589 30.5692 40.4628 30.7329 40.502 30.8899C40.5411 31.0468 40.6146 31.1931 40.7171 31.3182C40.8197 31.4433 40.9487 31.5442 41.0948 31.6134C41.241 31.6827 41.4007 31.7187 41.5625 31.7188C41.636 31.7194 41.7093 31.712 41.7812 31.6969L47.25 30.6031C47.4619 30.5615 47.6565 30.4575 47.8089 30.3045L50.3125 27.7966V39.375ZM43.3278 27.3744L44.8131 28.8597L42.9538 29.2305L43.3278 27.3744ZM61.25 45.9375V48.125H63.4375V45.9375H65.625V52.5H32.8125V45.9375H35V48.125H37.1875V45.9375H39.375V48.125H41.5625V45.9375H43.75V48.125H45.9375V45.9375H48.125V48.125H50.3125V45.9375H52.5V48.125H54.6875V45.9375H56.875V48.125H59.0625V45.9375H61.25ZM47.0312 27.9847L44.2028 25.1562L60.1562 9.20281L62.9847 12.0312L47.0312 27.9847Z" fill="black"/>
</svg>
