<svg width="70" height="70" viewBox="0 0 70 70" fill="none" xmlns="http://www.w3.org/2000/svg">
<path d="M24.15 52.71H10.36C9.79999 52.71 9.37999 53.13 9.37999 53.69C9.37999 54.25 9.79999 54.67 10.36 54.67H24.15C24.71 54.67 25.13 54.25 25.13 53.69C25.13 53.13 24.71 52.71 24.15 52.71Z" fill="black"/>
<path d="M41.86 52.71H28.14C27.58 52.71 27.16 53.13 27.16 53.69C27.16 54.25 27.58 54.67 28.14 54.67H41.93C42.49 54.67 42.91 54.25 42.91 53.69C42.91 53.13 42.42 52.71 41.86 52.71Z" fill="black"/>
<path d="M59.64 52.71H45.85C45.29 52.71 44.87 53.13 44.87 53.69C44.87 54.25 45.29 54.67 45.85 54.67H59.64C60.2 54.67 60.62 54.25 60.62 53.69C60.62 53.13 60.13 52.71 59.64 52.71Z" fill="black"/>
<path d="M52.71 56.63H45.85C45.29 56.63 44.87 57.05 44.87 57.61C44.87 58.17 45.29 58.59 45.85 58.59H52.71C53.27 58.59 53.69 58.17 53.69 57.61C53.69 57.05 53.27 56.63 52.71 56.63Z" fill="black"/>
<path d="M35 56.63H28.14C27.58 56.63 27.16 57.05 27.16 57.61C27.16 58.17 27.58 58.59 28.14 58.59H35C35.56 58.59 35.98 58.17 35.98 57.61C35.98 57.05 35.56 56.63 35 56.63Z" fill="black"/>
<path d="M17.29 56.63H10.43C9.87 56.63 9.45 57.05 9.45 57.61C9.45 58.17 9.87 58.59 10.43 58.59H17.29C17.85 58.59 18.27 58.17 18.27 57.61C18.27 57.05 17.85 56.63 17.29 56.63Z" fill="black"/>
<path d="M35.98 19.25H44.87C45.43 19.25 45.85 18.83 45.85 18.27C45.85 17.71 45.43 17.29 44.87 17.29H35.98C35.42 17.29 35 17.71 35 18.27C35 18.83 35.42 19.25 35.98 19.25Z" fill="black"/>
<path d="M59.64 21.21H35.98C35.42 21.21 35 21.63 35 22.19C35 22.75 35.42 23.17 35.98 23.17H59.64C60.2 23.17 60.62 22.75 60.62 22.19C60.62 21.63 60.13 21.21 59.64 21.21Z" fill="black"/>
<path d="M59.64 27.16H40.88C40.32 27.16 39.9 27.58 39.9 28.14C39.9 28.7 40.32 29.12 40.88 29.12H59.57C60.13 29.12 60.55 28.7 60.55 28.14C60.55 27.58 60.13 27.16 59.64 27.16Z" fill="black"/>
<path d="M59.64 31.08H40.88C40.32 31.08 39.9 31.5 39.9 32.06C39.9 32.62 40.32 33.04 40.88 33.04H59.57C60.13 33.04 60.55 32.62 60.55 32.06C60.55 31.5 60.13 31.08 59.64 31.08Z" fill="black"/>
<path d="M59.64 35H40.88C40.32 35 39.9 35.42 39.9 35.98C39.9 36.54 40.32 36.96 40.88 36.96H59.57C60.13 36.96 60.55 36.54 60.55 35.98C60.55 35.42 60.13 35 59.64 35Z" fill="black"/>
<path d="M35.98 29.12H36.96C37.52 29.12 37.94 28.7 37.94 28.14C37.94 27.58 37.52 27.16 36.96 27.16H35.98C35.42 27.16 35 27.58 35 28.14C35 28.7 35.42 29.12 35.98 29.12Z" fill="black"/>
<path d="M63.56 5.46002H6.44C4.83 5.46002 3.5 6.79002 3.5 8.40002V61.6C3.5 63.21 4.83 64.54 6.44 64.54H63.56C65.17 64.54 66.5 63.21 66.5 61.6V8.40002C66.5 6.79002 65.17 5.46002 63.56 5.46002ZM61.6 8.40002H62.58C63.14 8.40002 63.56 8.82002 63.56 9.38002C63.56 9.94002 63.14 10.36 62.58 10.36H61.6C61.04 10.36 60.62 9.94002 60.62 9.38002C60.62 8.89002 61.04 8.40002 61.6 8.40002ZM12.67 8.68002C13.02 8.33002 13.72 8.33002 14.07 8.68002C14.28 8.89002 14.35 9.10002 14.35 9.38002C14.35 9.66002 14.21 9.87002 14.07 10.08C13.86 10.29 13.65 10.36 13.37 10.36C13.09 10.36 12.88 10.22 12.67 10.08C12.46 9.87002 12.39 9.66002 12.39 9.38002C12.39 9.17002 12.46 8.89002 12.67 8.68002ZM9.66 8.68002C10.01 8.33002 10.71 8.33002 11.06 8.68002C11.27 8.89002 11.34 9.10002 11.34 9.38002C11.34 9.66002 11.2 9.87002 11.06 10.08C10.85 10.29 10.64 10.36 10.36 10.36C10.08 10.36 9.87 10.22 9.66 10.08C9.45 9.87002 9.38 9.66002 9.38 9.38002C9.38 9.17002 9.52 8.89002 9.66 8.68002ZM6.72 8.68002C7.07 8.33002 7.77 8.33002 8.12 8.68002C8.33 8.89002 8.4 9.10002 8.4 9.38002C8.4 9.66002 8.26 9.87002 8.12 10.08C7.91 10.29 7.7 10.36 7.42 10.36C7.14 10.36 6.93 10.22 6.72 10.08C6.51 9.87002 6.44 9.66002 6.44 9.38002C6.44 9.10002 6.58 8.89002 6.72 8.68002ZM64.54 61.6C64.54 62.16 64.12 62.58 63.56 62.58H6.44C5.88 62.58 5.46 62.16 5.46 61.6V14.35C5.46 13.79 5.88 13.37 6.44 13.37H63.56C64.12 13.37 64.54 13.79 64.54 14.35V61.6Z" fill="black"/>
<path d="M35.98 33.04H36.96C37.52 33.04 37.94 32.62 37.94 32.06C37.94 31.5 37.52 31.08 36.96 31.08H35.98C35.42 31.08 35 31.5 35 32.06C35 32.62 35.42 33.04 35.98 33.04Z" fill="black"/>
<path d="M35.98 36.96H36.96C37.52 36.96 37.94 36.54 37.94 35.98C37.94 35.42 37.52 35 36.96 35H35.98C35.42 35 35 35.42 35 35.98C35 36.54 35.42 36.96 35.98 36.96Z" fill="black"/>
<path d="M24.15 40.88H10.36C9.79999 40.88 9.37999 41.3 9.37999 41.86V49.7C9.37999 50.26 9.79999 50.68 10.36 50.68H24.15C24.71 50.68 25.13 50.26 25.13 49.7V41.86C25.13 41.37 24.71 40.88 24.15 40.88Z" fill="black"/>
<path d="M10.36 36.96H29.05C29.61 36.96 30.03 36.54 30.03 35.98V18.27C30.03 17.71 29.61 17.29 29.05 17.29H10.36C9.79999 17.29 9.37999 17.71 9.37999 18.27V35.98C9.37999 36.54 9.86999 36.96 10.36 36.96Z" fill="black"/>
<path d="M41.86 40.88H28.14C27.58 40.88 27.16 41.3 27.16 41.86V49.7C27.16 50.26 27.58 50.68 28.14 50.68H41.93C42.49 50.68 42.91 50.26 42.91 49.7V41.86C42.84 41.37 42.42 40.88 41.86 40.88Z" fill="black"/>
<path d="M59.64 40.88H45.85C45.29 40.88 44.87 41.3 44.87 41.86V49.7C44.87 50.26 45.29 50.68 45.85 50.68H59.64C60.2 50.68 60.62 50.26 60.62 49.7V41.86C60.62 41.37 60.13 40.88 59.64 40.88Z" fill="black"/>
</svg>
