<svg width="112" height="54" viewBox="0 0 112 54" fill="none" xmlns="http://www.w3.org/2000/svg">
<path d="M56.9807 25.4174C56.9807 25.2416 57.0446 25.0977 57.1563 24.9858C57.2681 24.8739 57.4118 24.8099 57.5874 24.8099C57.763 24.8099 57.9067 24.8739 58.0185 24.9858C58.1302 25.0977 58.1941 25.2416 58.1941 25.4174V28.6625C58.1941 28.9343 58.242 29.19 58.3537 29.4298C58.4655 29.6696 58.5932 29.8774 58.7688 30.0693C58.9445 30.2451 59.152 30.389 59.3915 30.5009C59.631 30.6128 59.8864 30.6607 60.1578 30.6607C60.4292 30.6607 60.6847 30.6128 60.9242 30.5009C61.1637 30.405 61.3712 30.2611 61.5628 30.0693C61.7384 29.8934 61.8821 29.6696 61.9939 29.4298C62.1056 29.19 62.1535 28.9343 62.1535 28.6625V23.0035C62.1535 22.8277 62.2174 22.6838 62.3291 22.5719C62.4409 22.46 62.5846 22.3961 62.7602 22.3961C62.9358 22.3961 63.0795 22.46 63.1913 22.5719C63.303 22.6838 63.3669 22.8277 63.3669 23.0035V28.6625C63.3669 29.1101 63.2871 29.5257 63.1114 29.9094C62.9358 30.2931 62.7123 30.6447 62.4249 30.9165C62.1375 31.2042 61.8023 31.428 61.4191 31.6039C61.0359 31.7797 60.6208 31.8597 60.1738 31.8597C59.631 31.8597 59.136 31.7318 58.689 31.492C58.242 31.2522 57.8748 30.9325 57.5714 30.5328C57.284 30.9325 56.9168 31.2522 56.4858 31.492C56.0387 31.7318 55.5438 31.8597 55.001 31.8597C54.5539 31.8597 54.1388 31.7797 53.7557 31.6039C53.3725 31.428 53.0213 31.2042 52.7498 30.9165C52.4625 30.6288 52.239 30.2931 52.0793 29.9094C51.9196 29.5257 51.8398 29.1101 51.8398 28.6625V23.0035C51.8398 22.8277 51.9037 22.6838 52.0154 22.5719C52.1272 22.46 52.2709 22.3961 52.4465 22.3961C52.6221 22.3961 52.7658 22.46 52.8776 22.5719C52.9893 22.6838 53.0532 22.8277 53.0532 23.0035V28.6625C53.0532 28.9343 53.1011 29.19 53.2128 29.4298C53.3086 29.6696 53.4523 29.8774 53.6279 30.0693C53.8036 30.2451 54.0111 30.389 54.2506 30.5009C54.4901 30.6128 54.7455 30.6607 55.0169 30.6607C55.5438 30.6607 56.0068 30.4689 56.39 30.1012C56.7731 29.7176 56.9807 29.254 56.9967 28.6785V25.4174H56.9807Z" fill="#1E2324"/>
<path d="M65.5541 27.7194C65.618 28.135 65.7617 28.5187 65.9692 28.8863C66.1768 29.238 66.4322 29.5577 66.7356 29.8135C67.0389 30.0693 67.3902 30.2771 67.7733 30.421C68.1565 30.5648 68.5716 30.6448 69.0027 30.6448C69.4817 30.6448 69.9287 30.5648 70.3438 30.389C70.7589 30.2132 71.1261 29.9734 71.4614 29.6536C71.5731 29.5417 71.7168 29.4778 71.8924 29.4778C72.0681 29.4778 72.2118 29.5417 72.3235 29.6536C72.4353 29.7655 72.4991 29.9094 72.4991 30.0853C72.4991 30.2611 72.4353 30.405 72.3235 30.5169C71.8924 30.9965 71.4135 31.3322 70.8707 31.54C70.3278 31.7478 69.7052 31.8437 69.0027 31.8437C68.3481 31.8437 67.7414 31.7318 67.1826 31.492C66.6238 31.2522 66.1129 30.9325 65.6978 30.5169C65.2668 30.1012 64.9315 29.6057 64.692 29.0302C64.4525 28.4547 64.3248 27.8313 64.3248 27.1599C64.3248 26.5044 64.4525 25.897 64.692 25.3375C64.9315 24.778 65.2668 24.2824 65.6819 23.8508C66.097 23.4352 66.6079 23.0835 67.1826 22.8437C67.7574 22.5879 68.38 22.4441 69.0666 22.4281C69.6892 22.4281 70.2799 22.556 70.8228 22.7957C71.3815 23.0355 71.8605 23.3712 72.2916 23.7869C72.7226 24.2025 73.0579 24.6981 73.3134 25.2576C73.5688 25.8171 73.7125 26.4085 73.7285 27.048C73.7604 27.2718 73.6965 27.4316 73.5688 27.5595C73.4411 27.6874 73.2814 27.7354 73.1378 27.7354H65.5541V27.7194ZM69.0027 23.643C68.5716 23.643 68.1725 23.7229 67.7893 23.8668C67.4061 24.0107 67.0549 24.2185 66.7516 24.4743C66.4482 24.73 66.1928 25.0338 65.9852 25.3854C65.7777 25.7371 65.6499 26.1208 65.5701 26.5204H72.4512C72.3714 26.1208 72.2277 25.7371 72.0202 25.3854C71.8126 25.0338 71.5572 24.73 71.2538 24.4743C70.9505 24.2185 70.5992 24.0266 70.2161 23.8668C69.8329 23.7229 69.4338 23.643 69.0027 23.643Z" fill="#1E2324"/>
<path d="M79.7953 25.4174C79.7953 25.2416 79.8592 25.0977 79.9709 24.9858C80.0827 24.8739 80.2264 24.8099 80.402 24.8099C80.5776 24.8099 80.7213 24.8739 80.8331 24.9858C80.9448 25.0977 81.0087 25.2416 81.0087 25.4174V28.6625C81.0087 28.9343 81.0566 29.19 81.1683 29.4298C81.2801 29.6696 81.4078 29.8774 81.5834 30.0693C81.7591 30.2451 81.9666 30.389 82.2061 30.5009C82.4456 30.6128 82.701 30.6607 82.9724 30.6607C83.2438 30.6607 83.4993 30.6128 83.7388 30.5009C83.9783 30.405 84.1858 30.2611 84.3774 30.0693C84.553 29.8934 84.6967 29.6696 84.8085 29.4298C84.9202 29.19 84.9681 28.9343 84.9681 28.6625V23.0035C84.9681 22.8277 85.032 22.6838 85.1437 22.5719C85.2555 22.46 85.3992 22.3961 85.5748 22.3961C85.7504 22.3961 85.8941 22.46 86.0059 22.5719C86.1176 22.6838 86.1815 22.8277 86.1815 23.0035V28.6625C86.1815 29.1101 86.1017 29.5257 85.926 29.9094C85.7504 30.2931 85.5269 30.6447 85.2395 30.9165C84.9521 31.2042 84.6169 31.428 84.2337 31.6039C83.8505 31.7797 83.4354 31.8597 82.9884 31.8597C82.4456 31.8597 81.9506 31.7318 81.5036 31.492C81.0566 31.2522 80.6894 30.9325 80.386 30.5328C80.0987 30.9325 79.7315 31.2522 79.3004 31.492C78.8534 31.7318 78.3584 31.8597 77.8156 31.8597C77.3686 31.8597 76.9535 31.7797 76.5703 31.6039C76.1871 31.428 75.8359 31.2042 75.5645 30.9165C75.2771 30.6288 75.0536 30.2931 74.8939 29.9094C74.7343 29.5257 74.6544 29.1101 74.6544 28.6625V23.0035C74.6544 22.8277 74.7183 22.6838 74.8301 22.5719C74.9418 22.46 75.0855 22.3961 75.2611 22.3961C75.4368 22.3961 75.5804 22.46 75.6922 22.5719C75.804 22.6838 75.8678 22.8277 75.8678 23.0035V28.6625C75.8678 28.9343 75.9157 29.19 76.0275 29.4298C76.1233 29.6696 76.267 29.8774 76.4426 30.0693C76.6182 30.2451 76.8257 30.389 77.0652 30.5009C77.3047 30.6128 77.5602 30.6607 77.8316 30.6607C78.3584 30.6607 78.8214 30.4689 79.2046 30.1012C79.5878 29.7176 79.7953 29.254 79.8113 28.6785V25.4174H79.7953Z" fill="#1E2324"/>
<path d="M88.3688 27.7194C88.4326 28.135 88.5763 28.5187 88.7839 28.8863C88.9914 29.238 89.2469 29.5577 89.5502 29.8135C89.8536 30.0693 90.2048 30.2771 90.588 30.421C90.9712 30.5648 91.3862 30.6448 91.8173 30.6448C92.2963 30.6448 92.7433 30.5648 93.1584 30.389C93.5735 30.2132 93.9407 29.9734 94.276 29.6536C94.3878 29.5417 94.5314 29.4778 94.7071 29.4778C94.8827 29.4778 95.0264 29.5417 95.1381 29.6536C95.2499 29.7655 95.3138 29.9094 95.3138 30.0853C95.3138 30.2611 95.2499 30.405 95.1381 30.5169C94.7071 30.9965 94.2281 31.3322 93.6853 31.54C93.1424 31.7478 92.5198 31.8437 91.8173 31.8437C91.1627 31.8437 90.556 31.7318 89.9973 31.492C89.4385 31.2522 88.9276 30.9325 88.5125 30.5169C88.0814 30.1012 87.7461 29.6057 87.5066 29.0302C87.2672 28.4547 87.1394 27.8313 87.1394 27.1599C87.1394 26.5044 87.2672 25.897 87.5066 25.3375C87.7461 24.778 88.0814 24.2824 88.4965 23.8508C88.9116 23.4352 89.4225 23.0835 89.9973 22.8437C90.572 22.5879 91.1947 22.4441 91.8812 22.4281C92.5038 22.4281 93.0946 22.556 93.6374 22.7957C94.1962 23.0355 94.6751 23.3712 95.1062 23.7869C95.5373 24.2025 95.8725 24.6981 96.128 25.2576C96.3834 25.8171 96.5271 26.4085 96.5431 27.048C96.575 27.2718 96.5112 27.4316 96.3834 27.5595C96.2557 27.6874 96.0961 27.7354 95.9524 27.7354H88.3688V27.7194ZM91.8173 23.643C91.3862 23.643 90.9871 23.7229 90.6039 23.8668C90.2208 24.0107 89.8695 24.2185 89.5662 24.4743C89.2628 24.73 89.0074 25.0338 88.7998 25.3854C88.5923 25.7371 88.4646 26.1208 88.3847 26.5204H95.2659C95.186 26.1208 95.0423 25.7371 94.8348 25.3854C94.6272 25.0338 94.3718 24.73 94.0684 24.4743C93.7651 24.2185 93.4139 24.0266 93.0307 23.8668C92.6475 23.7229 92.2484 23.643 91.8173 23.643Z" fill="#1E2324"/>
<path d="M102.163 22.4121C102.786 22.4121 103.376 22.54 103.951 22.7957C104.51 23.0515 105.005 23.3872 105.436 23.8188C105.867 24.2504 106.202 24.746 106.458 25.3215C106.713 25.897 106.841 26.5044 106.841 27.1599C106.841 27.7993 106.713 28.3908 106.474 28.9662C106.234 29.5257 105.899 30.0213 105.468 30.4529C105.053 30.8845 104.542 31.2202 103.983 31.46C103.408 31.6998 102.802 31.8277 102.131 31.8277C101.476 31.8277 100.87 31.7158 100.311 31.476C99.7521 31.2362 99.2413 30.9165 98.8262 30.5009C98.3951 30.0853 98.0598 29.5897 97.8203 29.0142C97.5808 28.4387 97.4531 27.8153 97.4531 27.1439V19.9183C97.4531 19.7425 97.517 19.5986 97.6287 19.4867C97.7405 19.3748 97.8842 19.3108 98.0598 19.3108C98.2354 19.3108 98.3791 19.3748 98.4909 19.4867C98.6026 19.5986 98.6665 19.7425 98.6665 19.9183V24.1705C99.0976 23.7069 99.6085 23.2913 100.199 22.9556C100.774 22.6199 101.444 22.444 102.163 22.4121ZM98.6346 27.1599C98.6346 27.6394 98.7304 28.087 98.906 28.5186C99.0816 28.9343 99.337 29.3179 99.6564 29.6376C99.9757 29.9574 100.343 30.2131 100.774 30.389C101.189 30.5648 101.652 30.6607 102.131 30.6607C102.61 30.6607 103.073 30.5648 103.488 30.389C103.919 30.2131 104.286 29.9574 104.606 29.6376C104.925 29.3179 105.18 28.9503 105.356 28.5186C105.532 28.103 105.627 27.6394 105.627 27.1599C105.627 26.6803 105.532 26.2167 105.356 25.8011C105.18 25.3694 104.925 25.0018 104.606 24.6821C104.286 24.3623 103.919 24.1066 103.488 23.9307C103.057 23.7549 102.61 23.659 102.131 23.659C101.668 23.659 101.221 23.7389 100.806 23.9147C100.391 24.0906 100.024 24.3304 99.7202 24.6501C99.4009 24.9698 99.1614 25.3375 98.9539 25.7691C98.7623 26.1847 98.6505 26.6483 98.6346 27.1599Z" fill="#1E2324"/>
<path d="M29.1689 18.016C29.1689 17.2487 28.6899 16.5613 27.8278 16.0497C26.1993 15.1066 23.6288 15.1066 22.0004 16.0497C21.1382 16.5453 20.6593 17.2487 20.6593 18.016V20.3339C20.6593 21.1012 21.1382 21.7886 22.0004 22.2842C22.8146 22.7638 23.8683 22.9876 24.9061 22.9876C25.9598 22.9876 26.9976 22.7478 27.8118 22.2842C28.6739 21.7886 29.1529 21.0853 29.1529 20.3339V18.032C29.1689 18.032 29.1689 18.016 29.1689 18.016ZM22.4793 16.881C23.1339 16.4973 24.028 16.3055 24.9221 16.3055C25.8161 16.3055 26.6942 16.4973 27.3648 16.881C27.9236 17.2007 28.2269 17.6004 28.2269 18.016C28.2269 18.4316 27.9236 18.8313 27.3648 19.151C26.0396 19.9183 23.8204 19.9183 22.4953 19.151C21.9365 18.8313 21.6332 18.4316 21.6332 18.016C21.6332 17.6004 21.9205 17.2007 22.4793 16.881ZM27.3488 21.4529C26.0237 22.2202 23.8045 22.2202 22.4793 21.4529C21.9205 21.1332 21.6172 20.7176 21.6172 20.3179V19.6945C21.7449 19.7904 21.8726 19.8703 22.0163 19.9503C22.8306 20.4298 23.8843 20.6536 24.9221 20.6536C25.9758 20.6536 27.0135 20.4139 27.8278 19.9503C27.9715 19.8703 28.0992 19.7744 28.2269 19.6945V20.3179C28.2109 20.7336 27.9076 21.1332 27.3488 21.4529Z" fill="#1E2324"/>
<path d="M24.938 41.8828C24.954 41.8828 24.954 41.8828 24.9699 41.8828C24.9859 41.8828 25.0019 41.8828 25.0019 41.8828C25.0178 41.8828 25.0338 41.8828 25.0338 41.8828C25.0498 41.8828 25.0498 41.8828 25.0657 41.8668C25.0817 41.8668 25.0817 41.8668 25.0977 41.8508C25.1136 41.8508 25.1296 41.8348 25.1296 41.8348C25.1456 41.8348 25.1456 41.8188 25.1615 41.8188H25.1775L37.5188 34.6732C37.5986 34.6252 37.6625 34.5613 37.6944 34.4973C37.7104 34.4654 37.7263 34.4334 37.7423 34.4174C37.7423 34.4174 37.7423 34.4014 37.7583 34.4014C37.7742 34.3694 37.7742 34.3535 37.7742 34.3215C37.7742 34.3055 37.7742 34.2895 37.7742 34.2895C37.7742 34.2735 37.7742 34.2416 37.7742 34.2256V34.2096V19.9343V19.9183C37.7742 19.9023 37.7742 19.8863 37.7742 19.8863C37.7742 19.8703 37.7742 19.8703 37.7742 19.8543C37.7742 19.8384 37.7742 19.8384 37.7742 19.8224C37.7742 19.8064 37.7742 19.7904 37.7583 19.7744V19.7584V19.7424V19.7265C37.7583 19.7105 37.7423 19.6945 37.7263 19.6785C37.7263 19.6625 37.7104 19.6625 37.7104 19.6465C37.6625 19.5826 37.5986 19.5186 37.5348 19.4707L25.1935 12.325H25.1775C25.1615 12.3091 25.1456 12.3091 25.1296 12.3091C25.1136 12.3091 25.0977 12.2931 25.0817 12.2931C25.0657 12.2931 25.0498 12.2771 25.0338 12.2771C25.0178 12.2771 25.0019 12.2771 24.9859 12.2611C24.9699 12.2611 24.954 12.2611 24.938 12.2611C24.922 12.2611 24.9061 12.2611 24.8901 12.2611C24.8742 12.2611 24.8582 12.2611 24.8422 12.2771C24.8263 12.2771 24.8103 12.2771 24.7943 12.2931C24.7784 12.2931 24.7624 12.3091 24.7464 12.3091C24.7305 12.3091 24.7145 12.325 24.6985 12.325H24.6826L12.2934 19.4227C12.2135 19.4707 12.1497 19.5346 12.1178 19.5986C12.1178 19.6146 12.1018 19.6146 12.1018 19.6305C12.0858 19.6465 12.0858 19.6625 12.0699 19.6785V19.6945V19.7105V19.7265C12.0699 19.7424 12.0539 19.7584 12.0539 19.7744C12.0539 19.7904 12.0539 19.7904 12.0539 19.8064C12.0539 19.8224 12.0539 19.8224 12.0539 19.8384C12.0539 19.8543 12.0539 19.8703 12.0539 19.8703V19.8863V34.1616V34.1776C12.0539 34.1936 12.0539 34.2256 12.0539 34.2416C12.0539 34.2575 12.0539 34.2735 12.0539 34.2735C12.0539 34.3055 12.0699 34.3215 12.0699 34.3535C12.0699 34.3535 12.0699 34.3694 12.0858 34.3694C12.1018 34.4014 12.1178 34.4334 12.1337 34.4494C12.1816 34.5133 12.2455 34.5773 12.3093 34.6252L24.6506 41.7709H24.6666C24.6826 41.7709 24.6826 41.7868 24.6985 41.7868C24.7145 41.7868 24.7305 41.8028 24.7305 41.8028C24.7464 41.8028 24.7464 41.8188 24.7624 41.8188C24.7784 41.8188 24.7784 41.8188 24.7943 41.8188C24.8103 41.8188 24.8263 41.8188 24.8263 41.8188C24.8422 41.8188 24.8582 41.8188 24.8582 41.8188C24.8742 41.8188 24.8742 41.8188 24.8901 41.8188C24.9061 41.8828 24.938 41.8828 24.938 41.8828ZM24.3633 40.3641L13.1395 33.8739V20.8774L24.3633 27.3677V40.3641ZM24.922 26.4085L13.6824 19.9023L24.922 13.3961L36.1617 19.9023L24.922 26.4085ZM36.7046 33.8579L25.4808 40.3481V27.3517L36.7046 20.8614V33.8579Z" fill="#1E2324"/>
<path d="M22.4793 29.9574C22.3676 29.7975 22.2398 29.6696 22.0962 29.5737C21.8407 29.4298 21.6491 29.4618 21.5214 29.5098C21.3138 29.5897 21.2021 29.7815 21.2021 30.0213V33.6661C21.2021 33.778 21.1861 33.8739 21.1382 33.9378C21.1063 33.9858 21.0744 34.0177 21.0265 34.0497C20.9626 34.0817 20.8828 34.0817 20.787 34.0657C20.6752 34.0497 20.5475 34.0018 20.4038 33.9218C20.2601 33.8419 20.1164 33.714 19.9727 33.5861C19.8291 33.4423 19.7173 33.2984 19.6215 33.1385C19.5257 32.9787 19.4459 32.8028 19.382 32.643C19.3341 32.4831 19.3022 32.3392 19.3022 32.1954V30.1012C19.3022 29.9254 19.2543 29.7495 19.1425 29.5897C19.0468 29.4298 18.9031 29.3019 18.7594 29.206C18.5039 29.0622 18.3123 29.0941 18.1846 29.1421C18.0888 29.1741 17.8653 29.3179 17.8653 29.6536V31.7318C17.8493 32.0515 17.7216 32.1154 17.6737 32.1314C17.53 32.1954 17.3225 32.1474 17.083 32.0035C16.9393 31.9236 16.7956 31.8117 16.6519 31.6678C16.5082 31.524 16.3965 31.3801 16.3007 31.2202C16.2049 31.0604 16.1251 30.9005 16.0612 30.7247C16.0133 30.5648 15.9814 30.4209 15.9814 30.2771V26.6323C15.9814 26.4565 15.9335 26.2806 15.8217 26.1208C15.71 25.9609 15.5822 25.833 15.4386 25.7371C15.1831 25.5932 14.9915 25.6252 14.8798 25.6732C14.6722 25.7531 14.5605 25.9449 14.5605 26.1847V29.8295C14.5605 30.1492 14.6243 30.4849 14.7361 30.8366C14.8478 31.1723 15.0075 31.492 15.1991 31.8117C15.3907 32.1154 15.6301 32.4192 15.9016 32.6909C16.173 32.9627 16.4603 33.1865 16.7797 33.3783C17.1788 33.6021 17.546 33.73 17.8813 33.746C18.1048 33.762 18.2964 33.73 18.472 33.6501C18.6476 33.9378 18.8392 34.2096 19.0627 34.4494C19.3661 34.801 19.7173 35.0728 20.1005 35.2966C20.4198 35.4884 20.7231 35.6003 21.0265 35.6483C21.1223 35.6643 21.2181 35.6643 21.2979 35.6643C21.5054 35.6643 21.6811 35.6323 21.8567 35.5524C22.1121 35.4405 22.3037 35.2646 22.4474 35.0089C22.5911 34.7691 22.6549 34.4813 22.6549 34.1296V30.4849C22.639 30.2931 22.5911 30.1332 22.4793 29.9574Z" fill="#1E2324"/>
<path d="M27.3488 29.9574C27.4605 29.7975 27.5883 29.6696 27.7319 29.5737C27.9874 29.4298 28.179 29.4618 28.3067 29.5098C28.5143 29.5897 28.626 29.7815 28.626 30.0213V33.6661C28.626 33.778 28.642 33.8739 28.6899 33.9378C28.7218 33.9858 28.7537 34.0177 28.8016 34.0497C28.8655 34.0817 28.9453 34.0817 29.0411 34.0657C29.1529 34.0497 29.2806 34.0018 29.4243 33.9218C29.568 33.8419 29.7117 33.714 29.8553 33.5861C29.999 33.4423 30.1108 33.2984 30.2066 33.1385C30.3024 32.9787 30.3822 32.8028 30.4461 32.643C30.494 32.4831 30.5259 32.3392 30.5259 32.1954V30.1012C30.5259 29.9254 30.5738 29.7495 30.6856 29.5897C30.7813 29.4298 30.925 29.3019 31.0687 29.206C31.3242 29.0622 31.5158 29.0941 31.6435 29.1421C31.7393 29.1741 31.9628 29.3179 31.9628 29.6536V31.7318C31.9788 32.0515 32.1065 32.1154 32.1544 32.1314C32.2981 32.1954 32.5056 32.1474 32.7451 32.0035C32.8888 31.9236 33.0325 31.8117 33.1762 31.6678C33.3198 31.524 33.4316 31.3801 33.5274 31.2202C33.6232 31.0604 33.703 30.9005 33.7669 30.7247C33.8148 30.5648 33.8467 30.4209 33.8467 30.2771V26.6323C33.8467 26.4565 33.8946 26.2806 34.0064 26.1208C34.1181 25.9609 34.2458 25.833 34.3895 25.7371C34.645 25.5932 34.8366 25.6252 34.9483 25.6732C35.1559 25.7531 35.2676 25.9449 35.2676 26.1847V29.8295C35.2676 30.1492 35.2038 30.4849 35.092 30.8366C34.9803 31.1723 34.8206 31.492 34.629 31.8117C34.4374 32.1154 34.1979 32.4192 33.9265 32.6909C33.6551 32.9627 33.3677 33.1865 33.0484 33.3783C32.6493 33.6021 32.2821 33.73 31.9468 33.746C31.7233 33.762 31.5317 33.73 31.3561 33.6501C31.1805 33.9378 30.9889 34.2096 30.7654 34.4494C30.462 34.801 30.1108 35.0728 29.7276 35.2966C29.4083 35.4884 29.105 35.6003 28.8016 35.6483C28.7058 35.6643 28.61 35.6643 28.5302 35.6643C28.3227 35.6643 28.147 35.6323 27.9714 35.5524C27.716 35.4405 27.5244 35.2646 27.3807 35.0089C27.237 34.7691 27.1732 34.4813 27.1732 34.1296V30.4849C27.1891 30.2931 27.237 30.1332 27.3488 29.9574Z" fill="#1E2324"/>
<path d="M24.9221 10.1829C24.6187 10.1829 24.3633 9.92717 24.3633 9.62344V5.17939C24.3633 4.87566 24.6187 4.61989 24.9221 4.61989C25.2254 4.61989 25.4809 4.87566 25.4809 5.17939V9.62344C25.4649 9.94316 25.2254 10.1829 24.9221 10.1829Z" fill="#1E2324"/>
<path d="M24.9221 49.46C24.6187 49.46 24.3633 49.2043 24.3633 48.9005V44.4565C24.3633 44.1528 24.6187 43.897 24.9221 43.897C25.2254 43.897 25.4809 44.1528 25.4809 44.4565V48.9165C25.4649 49.2203 25.2254 49.46 24.9221 49.46Z" fill="#1E2324"/>
<path d="M39.8498 27.0479C39.8498 26.7442 40.1052 26.4884 40.4086 26.4884H44.8469C45.1503 26.4884 45.4057 26.7442 45.4057 27.0479C45.4057 27.3517 45.1503 27.6074 44.8469 27.6074H40.4086C40.1052 27.6074 39.8498 27.3517 39.8498 27.0479Z" fill="#1E2324"/>
<path d="M4.42242 27.0479C4.42242 26.7442 4.67787 26.4884 4.98122 26.4884H9.41961C9.72296 26.4884 9.9784 26.7442 9.9784 27.0479C9.9784 27.3517 9.72296 27.6074 9.41961 27.6074H4.98122C4.67787 27.6074 4.42242 27.3517 4.42242 27.0479Z" fill="#1E2324"/>
<path d="M37.7743 14.1154C37.9978 14.3392 37.9978 14.6909 37.7743 14.8987L36.5928 16.0817C36.3693 16.3055 36.0181 16.3055 35.8105 16.0817C35.587 15.8579 35.587 15.5062 35.8105 15.2984L36.992 14.1154C37.2155 13.8916 37.5667 13.8916 37.7743 14.1154Z" fill="#1E2324"/>
<path d="M12.0539 39.9805C11.8304 39.7567 11.8304 39.405 12.0539 39.1971L13.2353 38.0142C13.4589 37.7904 13.8101 37.7904 14.0176 38.0142C14.2412 38.238 14.2412 38.5897 14.0176 38.7975L12.8362 39.9805C12.6127 40.1883 12.2614 40.1883 12.0539 39.9805Z" fill="#1E2324"/>
<path d="M12.0539 14.1154C11.8304 14.3392 11.8304 14.6909 12.0539 14.8987L13.2353 16.0817C13.4589 16.3055 13.8101 16.3055 14.0176 16.0817C14.2412 15.8579 14.2412 15.5062 14.0176 15.2984L12.8362 14.1154C12.6127 13.8916 12.2614 13.8916 12.0539 14.1154Z" fill="#1E2324"/>
<path d="M37.7743 39.9805C37.9978 39.7567 37.9978 39.405 37.7743 39.1971L36.5928 38.0142C36.3693 37.7904 36.0181 37.7904 35.8105 38.0142C35.587 38.238 35.587 38.5897 35.8105 38.7975L36.992 39.9805C37.2155 40.1883 37.5667 40.1883 37.7743 39.9805Z" fill="#1E2324"/>
</svg>
